<svg xmlns="http://www.w3.org/2000/svg" viewBox="0 0 64 40" width="64" height="40" aria-hidden="true"><rect fill="#000" rx="4" width="64" height="40"/><path fill="#fff" d="M38 12c-1.5 0-2.7.8-3.4 2.1-.8 1.4-.7 3.3.2 5.2 1 2 2.6 3.2 4.2 3.2 1.4 0 2.6-.9 3.3-2.3.9-1.8.7-3.8-.3-5.4-.9-1.5-2.3-2.8-4-2.8zm-12 1.2c-2.2 0-4.5 1.6-5.5 4-.9 2.1-.5 4.4 1 6.1 1.1 1.2 2.5 1.9 4 1.9 2.1 0 4.2-1.7 5.2-4.2.8-2 .5-4.2-.8-5.8-1-1.2-2.4-2-3.9-2z"/><text x="32" y="34" fill="#fff" font-family="Arial,sans-serif" font-size="7" text-anchor="middle">Pay</text></svg>
